<svg xmlns="http://www.w3.org/2000/svg" xmlns:xlink="http://www.w3.org/1999/xlink" xml:space="preserve" width="10in" height="10in" version="1.1" style="shape-rendering:geometricPrecision; text-rendering:geometricPrecision; image-rendering:optimizeQuality; fill-rule:evenodd; clip-rule:evenodd" viewBox="0 0 10000 10000">
 <defs>
  <style type="text/css">
   <![CDATA[
    .fil0 {fill:none}
    .fil1 {fill:#1B2167}
    .fil2 {fill:white;fill-rule:nonzero}
   ]]>
  </style>
 </defs>
 <g id="Layer_x0020_1">
  <metadata id="CorelCorpID_0Corel-Layer"/>
  <rect class="fil0" x="1250" y="1250" width="7500" height="7500"/>
  <circle class="fil1" cx="5000" cy="5000" r="3100"/>
  <g id="_512x512bb.eps">
   <path class="fil2" d="M4096 3703c311,-50 638,15 904,183 211,-130 459,-204 707,-198 384,-1 762,182 1003,479 148,180 246,399 282,629 50,313 -19,643 -190,909 -166,258 -422,458 -716,548 -304,97 -643,75 -933,-57 -53,-21 -100,-57 -154,-78 -163,90 -339,163 -525,184 -298,40 -609,-29 -864,-188 -198,-126 -366,-303 -472,-514 -127,-245 -174,-532 -130,-805 55,-356 265,-685 566,-885 156,-106 336,-175 522,-207zm-445 646c-159,158 -256,376 -268,599 -14,237 68,478 225,657 187,220 484,341 772,316 183,-16 361,-85 503,-202 204,-161 333,-413 345,-673 3,-80 -7,-162 24,-238 52,-148 208,-253 365,-245 1,147 0,294 1,440 1,127 -19,253 -55,374 -49,172 -142,325 -247,467 210,91 453,107 671,32 210,-70 393,-217 504,-409 124,-208 160,-465 98,-699 -56,-219 -196,-413 -383,-538 -147,-97 -322,-153 -498,-153 -254,-7 -508,101 -681,286 -174,180 -267,433 -256,682 6,96 -29,191 -92,263 -72,87 -186,128 -296,131 -2,-145 -1,-290 -1,-435 -1,-265 80,-531 232,-748 24,-33 46,-67 69,-101 -121,-48 -248,-82 -379,-78 -242,-3 -483,99 -653,272z"/>
  </g>
 </g>
</svg>