<svg xmlns="http://www.w3.org/2000/svg" xmlns:xlink="http://www.w3.org/1999/xlink" xml:space="preserve" width="7.5in" height="7.5in" version="1.1" style="shape-rendering:geometricPrecision; text-rendering:geometricPrecision; image-rendering:optimizeQuality; fill-rule:evenodd; clip-rule:evenodd" viewBox="0 0 7500 7500">
 <defs>
  <style type="text/css">
   <![CDATA[
    .fil0 {fill:none}
    .fil1 {fill:#FEFEFE}
    .fil2 {fill:url(#id0)}
   ]]>
  </style>
  <linearGradient id="id0" gradientUnits="userSpaceOnUse" x1="3631.99" y1="6264.33" x2="3735.11" y2="1235.68">
   <stop offset="0" style="stop-opacity:1; stop-color:#BFBFBF"/>
   <stop offset="1" style="stop-opacity:1; stop-color:#BFBFBF"/>
  </linearGradient>
 </defs>
 <g id="Layer_x0020_1">
  <metadata id="CorelCorpID_0Corel-Layer"/>
  <rect class="fil0" width="7500" height="7500"/>
  <circle class="fil1" cx="3750" cy="3750" r="3100"/>
  <path class="fil2" d="M5960 5141c-234,472 -581,762 -955,937l0 1c-365,170 -755,228 -1089,239 -39,4 -120,2 -169,0l-11 0c-367,-10 -1013,-187 -1553,-620 -376,-303 -703,-729 -852,-1310 -162,-635 -107,-1177 79,-1627 226,-548 645,-957 1098,-1227 199,-119 424,-207 655,-265 247,-62 502,-91 741,-89 239,2 466,41 686,111 218,70 428,171 633,298l10 7c221,164 379,327 483,478 130,188 180,364 168,507 -20,231 -89,371 -196,453 145,225 343,599 416,1030 56,338 36,711 -144,1077zm-1075 681c322,-150 620,-400 821,-806 151,-305 167,-619 119,-906 -71,-422 -279,-785 -410,-978 -98,11 -209,8 -329,-3 -58,-5 -126,-12 -197,-20 -146,-17 -301,-34 -460,-34 -593,0 -1064,0 -1191,495 -43,167 -1,327 88,454 44,65 101,122 165,167 63,44 132,77 202,95 116,30 236,19 335,-50l1 -1c171,-114 342,-189 508,-208 164,-18 320,18 461,123 78,58 149,137 196,228l0 1c43,83 66,176 60,274 -6,99 -41,200 -115,300 -79,107 -205,212 -391,308 -205,105 -444,173 -700,190 -235,15 -484,-12 -732,-94 -245,-81 -513,-240 -728,-468 -183,-192 -329,-434 -394,-721l0 0c-33,-141 -48,-258 -52,-363 -5,-106 2,-196 12,-286 13,-105 33,-209 66,-317 34,-107 81,-218 147,-338 125,-224 281,-398 464,-530 182,-130 391,-218 620,-271l4 -1c324,-66 769,-62 1206,108 299,117 594,311 845,613 52,-45 86,-116 95,-225 7,-83 -28,-194 -118,-324 -86,-125 -220,-263 -412,-406 -185,-115 -374,-206 -567,-268 -194,-62 -394,-96 -602,-97 -214,-3 -445,24 -670,81 -207,52 -405,129 -579,232 -407,243 -782,607 -982,1093 -164,397 -212,880 -66,1449 131,513 421,891 755,1159 486,390 1060,550 1382,559l12 0c42,1 110,3 134,0l11 0c303,-9 657,-61 986,-214l0 0zm224 -2975c27,2 54,4 79,5 -194,-199 -411,-333 -630,-418 -379,-148 -763,-152 -1044,-96l0 0c-192,45 -367,118 -518,227 -150,107 -279,251 -382,437 -56,100 -95,193 -123,284 -28,89 -45,176 -55,265 -10,79 -15,157 -12,243 4,87 17,187 45,311l0 1c53,232 173,430 324,589 181,191 406,325 612,393 212,70 425,94 625,80 216,-14 417,-71 588,-158 145,-75 239,-151 294,-225 39,-52 57,-102 60,-148 3,-46 -9,-90 -29,-129l0 0c-27,-52 -68,-97 -114,-131 -79,-59 -167,-79 -261,-68 -118,13 -248,71 -382,161 -171,118 -372,139 -563,90 -104,-27 -205,-75 -296,-139 -89,-63 -170,-144 -234,-236 -131,-190 -194,-431 -129,-685 182,-709 750,-709 1465,-709 170,0 336,19 491,36 62,7 123,14 189,20z"/>
 </g>
</svg>